<?xml version="1.0" standalone="no"?>
<!DOCTYPE svg PUBLIC "-//W3C//DTD SVG 20010904//EN" "http://www.w3.org/TR/2001/REC-SVG-20010904/DTD/svg10.dtd">
<!-- Created using Krita: https://krita.org -->
<svg xmlns="http://www.w3.org/2000/svg" 
    xmlns:xlink="http://www.w3.org/1999/xlink"
    xmlns:krita="http://krita.org/namespaces/svg/krita"
    xmlns:sodipodi="http://sodipodi.sourceforge.net/DTD/sodipodi-0.dtd"
    width="240pt"
    height="120pt"
    viewBox="0 0 240 120">
<defs>
  <linearGradient id="gradient0" gradientUnits="objectBoundingBox" x1="2.17026421139854e-09" y1="0.500000016672068" x2="1.00000002170264" y2="0.500000016672068" spreadMethod="pad">
   <stop stop-color="#ff8008" offset="0" stop-opacity="1"/>
   <stop stop-color="#e5b422" offset="1" stop-opacity="1"/>
  </linearGradient>
  <linearGradient id="gradient1" gradientUnits="objectBoundingBox" x1="2.17026322607561e-09" y1="0.500000016672068" x2="1.00000002170263" y2="0.500000016672068" spreadMethod="pad">
   <stop stop-color="#ff8008" offset="0" stop-opacity="1"/>
   <stop stop-color="#e5b422" offset="1" stop-opacity="1"/>
  </linearGradient>
  <linearGradient id="gradient2" gradientUnits="objectBoundingBox" x1="2.17026347587579e-09" y1="0.500000016672069" x2="1.00000002170263" y2="0.500000016672069" spreadMethod="pad">
   <stop stop-color="#ff8008" offset="0" stop-opacity="1"/>
   <stop stop-color="#e5b422" offset="1" stop-opacity="1"/>
  </linearGradient>
 </defs>
<text id="shape0" krita:useRichText="true" krita:textVersion="2" transform="translate(27.6736268708841, 84.0953125)" fill="#ff711f" stroke-opacity="0" stroke="#000000" stroke-width="0" stroke-linecap="square" stroke-linejoin="bevel" font-family="Oswald" font-size="48" font-size-adjust="0.389842" font-stretch="normal" font-weight="700" kerning="0" letter-spacing="0" text-anchor="middle" word-spacing="0"><tspan x="58.5">VULPI</tspan></text><g id="layer1" transform="matrix(0.240000002579059 0 0 0.240000002579059 126.802580371926 -4.88992185658768)" fill="none">
  <path id="path2909-4" transform="matrix(-0.05777125 -0.35422188 0.47847832 -0.09905882 259.702916590103 365.639156451897)" fill="url(#gradient0)" stroke-opacity="0" stroke="#000000" stroke-width="0" stroke-linecap="square" stroke-linejoin="bevel" d="M0 40.4064C0 40.4064 7.76192 50.1853 23.7692 61.8862C39.8533 73.6433 64.0204 86.3334 93.5479 89.7242C124.917 93.4096 159.459 85.9452 187.407 67.6637C195.412 62.5497 203.367 56.1227 211.805 49.3602C214.082 47.5353 216.415 45.6695 218.799 43.7901C229.904 34.8605 242.385 25.4815 256.99 17.6556C293.551 -1.43192 333.078 -3.4178 365.882 4.01251C399.737 11.6339 424.258 28.1403 439.289 41.4343C454.412 54.8093 460.774 64.7904 460.774 64.7904C460.774 64.7904 451.348 57.533 433.984 49.4708C416.469 41.3382 391.529 33.2647 362.275 33.0773C334.196 32.9475 303.958 40.1515 279.458 56.4306C269.383 62.9041 259.483 71.546 248.547 80.4845C246.23 82.4167 243.869 84.362 241.445 86.3083C232.475 93.5101 222.497 100.851 211.145 107.322C170.097 130.323 123.79 131.61 86.6098 119.087C52.0151 107.354 29.3933 85.6134 16.7301 68.9993C3.92056 52.1931 0 40.4064 0 40.4064Z" sodipodi:nodetypes="ccccccccccccccccccc"/>
  <path id="path2909" transform="matrix(-0.09973436 -0.71386301 0.82602865 -0.19963316 261.879707359173 435.420522535158)" fill="url(#gradient1)" stroke-opacity="0" stroke="#000000" stroke-width="0" stroke-linecap="square" stroke-linejoin="bevel" d="M0 40.4064C0 40.4064 7.76192 50.1853 23.7692 61.8862C39.8533 73.6433 64.0204 86.3334 93.5479 89.7242C124.917 93.4096 159.459 85.9452 187.407 67.6637C195.412 62.5497 203.367 56.1227 211.805 49.3602C214.082 47.5353 216.415 45.6695 218.799 43.7901C229.904 34.8605 242.385 25.4815 256.99 17.6556C293.551 -1.43192 333.078 -3.4178 365.882 4.01251C399.737 11.6339 424.258 28.1403 439.289 41.4343C454.412 54.8093 460.774 64.7904 460.774 64.7904C460.774 64.7904 451.348 57.533 433.984 49.4708C416.469 41.3382 391.529 33.2647 362.275 33.0773C334.196 32.9475 303.958 40.1515 279.458 56.4306C269.383 62.9041 259.483 71.546 248.547 80.4845C246.23 82.4167 243.869 84.362 241.445 86.3083C232.475 93.5101 222.497 100.851 211.145 107.322C170.097 130.323 123.79 131.61 86.6098 119.087C52.0151 107.354 29.3933 85.6134 16.7301 68.9993C3.92056 52.1931 0 40.4064 0 40.4064Z" sodipodi:nodetypes="ccccccccccccccccccc"/>
  <path id="path2909-0" transform="matrix(0.06814641 -0.58835928 -0.66443298 -0.26553665 220.912392094365 439.608133405149)" fill="url(#gradient2)" stroke-opacity="0" stroke="#000000" stroke-width="0" stroke-linecap="square" stroke-linejoin="bevel" d="M0 40.4064C0 40.4064 7.76192 50.1853 23.7692 61.8862C39.8533 73.6433 64.0204 86.3334 93.5479 89.7242C124.917 93.4096 159.459 85.9452 187.407 67.6637C195.412 62.5497 203.367 56.1227 211.805 49.3602C214.082 47.5353 216.415 45.6695 218.799 43.7901C229.904 34.8605 242.385 25.4815 256.99 17.6556C293.551 -1.43192 333.078 -3.4178 365.882 4.01251C399.737 11.6339 424.258 28.1403 439.289 41.4343C454.412 54.8093 460.774 64.7904 460.774 64.7904C460.774 64.7904 451.348 57.533 433.984 49.4708C416.469 41.3382 391.529 33.2647 362.275 33.0773C334.196 32.9475 303.958 40.1515 279.458 56.4306C269.383 62.9041 259.483 71.546 248.547 80.4845C246.23 82.4167 243.869 84.362 241.445 86.3083C232.475 93.5101 222.497 100.851 211.145 107.322C170.097 130.323 123.79 131.61 86.6098 119.087C52.0151 107.354 29.3933 85.6134 16.7301 68.9993C3.92056 52.1931 0 40.4064 0 40.4064Z" sodipodi:nodetypes="ccccccccccccccccccc"/>
 </g>
</svg>
