<?xml version="1.0" encoding="UTF-8" standalone="no"?>
<!-- Created with Inkscape (http://www.inkscape.org/) -->

<svg
   width="155.77992mm"
   height="155.77994mm"
   viewBox="0 0 155.77992 155.77994"
   version="1.1"
   id="svg5"
   inkscape:export-filename="lightOn.svg"
   inkscape:export-xdpi="16.305054"
   inkscape:export-ydpi="16.305054"
   xmlns:inkscape="http://www.inkscape.org/namespaces/inkscape"
   xmlns:sodipodi="http://sodipodi.sourceforge.net/DTD/sodipodi-0.dtd"
   xmlns="http://www.w3.org/2000/svg"
   xmlns:svg="http://www.w3.org/2000/svg">
  <sodipodi:namedview
     id="namedview7"
     pagecolor="#ffffff"
     bordercolor="#999999"
     borderopacity="1"
     inkscape:showpageshadow="0"
     inkscape:pageopacity="0"
     inkscape:pagecheckerboard="0"
     inkscape:deskcolor="#d1d1d1"
     inkscape:document-units="mm"
     showgrid="false" />
  <defs
     id="defs2" />
  <g
     inkscape:label="Warstwa 1"
     inkscape:groupmode="layer"
     id="layer1"
     transform="translate(21.989677,-35.581587)">
    <g
       inkscape:groupmode="layer"
       id="layer2"
       inkscape:label="Triangles"
       transform="translate(-52.830103,4.741163)"
       style="fill:#ffad00;fill-opacity:1;stroke:#eda946;stroke-opacity:0.68662">
      <path
         sodipodi:type="star"
         style="font-variation-settings:'wght' 200;fill:#ff9c03;fill-opacity:1;stroke:#eda946;stroke-width:0.661458;stroke-opacity:0.68662"
         id="path1291-6-3"
         inkscape:flatsided="false"
         sodipodi:sides="3"
         sodipodi:cx="343.01932"
         sodipodi:cy="99.55706"
         sodipodi:r1="109.69587"
         sodipodi:r2="54.847935"
         sodipodi:arg1="0.52359878"
         sodipodi:arg2="1.5707963"
         inkscape:rounded="0.01"
         inkscape:randomized="0"
         d="m 438.01873,154.405 c -0.475,0.82271 -94.04942,-1e-5 -94.99941,-1e-5 -0.95,0 -94.52442,0.82272 -94.99941,0 -0.475,-0.82271 47.02471,-81.449177 47.4997,-82.271896 0.475,-0.822719 46.54971,-82.271903 47.49971,-82.271903 0.94999,0 47.0247,81.449182 47.4997,82.271901 0.475,0.822719 47.9747,81.449188 47.49971,82.271908 z"
         transform="matrix(0,0.26458333,0.26458333,0,33.610492,19.242809)"
         inkscape:transform-center-x="7.2559227"
         inkscape:transform-center-y="2.582297e-06"
         inkscape:label="LEFT" />
      <path
         sodipodi:type="star"
         style="font-variation-settings:'wght' 200;fill:#ff9c03;fill-opacity:1;stroke:#eda946;stroke-width:0.661458;stroke-opacity:0.68662"
         id="path1291-6-3-6"
         inkscape:flatsided="false"
         sodipodi:sides="3"
         sodipodi:cx="343.01932"
         sodipodi:cy="99.55706"
         sodipodi:r1="109.69587"
         sodipodi:r2="54.847935"
         sodipodi:arg1="0.52359878"
         sodipodi:arg2="1.5707963"
         inkscape:rounded="0.01"
         inkscape:randomized="0"
         d="m 438.01873,154.405 c -0.475,0.82271 -94.04942,-1e-5 -94.99941,-1e-5 -0.95,0 -94.52442,0.82272 -94.99941,0 -0.475,-0.82271 47.02471,-81.449177 47.4997,-82.271896 0.475,-0.822719 46.54971,-82.271903 47.49971,-82.271903 0.94999,0 47.0247,81.449182 47.4997,82.271901 0.475,0.822719 47.9747,81.449188 47.49971,82.271908 z"
         transform="matrix(0,0.26462493,-0.24154329,0,184.09151,19.228539)"
         inkscape:transform-center-x="-6.6240922"
         inkscape:transform-center-y="2.1863646e-06"
         inkscape:label="RIGHT" />
      <path
         sodipodi:type="star"
         style="font-variation-settings:'wght' 200;fill:#ff9c03;fill-opacity:1;stroke:#eda946;stroke-width:0.661458;stroke-opacity:0.68662"
         id="path1291-7"
         inkscape:flatsided="false"
         sodipodi:sides="3"
         sodipodi:cx="343.01932"
         sodipodi:cy="99.55706"
         sodipodi:r1="109.69587"
         sodipodi:r2="54.847935"
         sodipodi:arg1="0.52359878"
         sodipodi:arg2="1.5707963"
         inkscape:rounded="0.01"
         inkscape:randomized="0"
         d="m 438.01873,154.405 c -0.475,0.82271 -94.04942,-1e-5 -94.99941,-1e-5 -0.95,0 -94.52442,0.82272 -94.99941,0 -0.475,-0.82271 47.02471,-81.449177 47.4997,-82.271896 0.475,-0.822719 46.54971,-82.271903 47.49971,-82.271903 0.94999,0 47.0247,81.449182 47.4997,82.271901 0.475,0.822719 47.9747,81.449188 47.49971,82.271908 z"
         transform="matrix(0.26462249,0,0,-0.24154327,19.229146,184.09152)"
         inkscape:transform-center-y="6.6240902"
         inkscape:transform-center-x="2.1060226e-06"
         inkscape:label="BOTTOM" />
      <path
         sodipodi:type="star"
         style="font-variation-settings:'wght' 200;fill:#ff9c03;fill-opacity:1;stroke:#eda946;stroke-width:0.661458;stroke-opacity:0.68662"
         id="path1291"
         inkscape:flatsided="false"
         sodipodi:sides="3"
         sodipodi:cx="343.01932"
         sodipodi:cy="99.55706"
         sodipodi:r1="109.69587"
         sodipodi:r2="54.847935"
         sodipodi:arg1="0.52359878"
         sodipodi:arg2="1.5707963"
         inkscape:rounded="0.01"
         inkscape:randomized="0"
         d="m 438.01873,154.405 c -0.475,0.82271 -94.04942,-1e-5 -94.99941,-1e-5 -0.95,0 -94.52442,0.82272 -94.99941,0 -0.475,-0.82271 47.02471,-81.449177 47.4997,-82.271896 0.475,-0.822719 46.54971,-82.271903 47.49971,-82.271903 0.94999,0 47.0247,81.449182 47.4997,82.271901 0.475,0.822719 47.9747,81.449188 47.49971,82.271908 z"
         transform="matrix(0.26458091,0,0,0.26458331,19.243636,33.610489)"
         inkscape:transform-center-y="-7.255925"
         inkscape:label="TOP" />
      <path
         sodipodi:type="star"
         style="font-variation-settings:'wght' 200;fill:#ff9c03;fill-opacity:1;stroke:#eda946;stroke-width:0.661458;stroke-opacity:0.68662"
         id="path1291-7-4"
         inkscape:flatsided="false"
         sodipodi:sides="3"
         sodipodi:cx="343.01932"
         sodipodi:cy="99.55706"
         sodipodi:r1="109.69587"
         sodipodi:r2="54.847935"
         sodipodi:arg1="0.52359878"
         sodipodi:arg2="1.5707963"
         inkscape:rounded="0.01"
         inkscape:randomized="0"
         d="m 438.01873,154.405 c -0.475,0.82271 -94.04942,-1e-5 -94.99941,-1e-5 -0.95,0 -94.52442,0.82272 -94.99941,0 -0.475,-0.82271 47.02471,-81.449177 47.4997,-82.271896 0.475,-0.822719 46.54971,-82.271903 47.49971,-82.271903 0.94999,0 47.0247,81.449182 47.4997,82.271901 0.475,0.822719 47.9747,81.449188 47.49971,82.271908 z"
         transform="matrix(0.19120851,0.18293268,0.16697809,-0.17453214,-7.8679551,100.77787)"
         inkscape:transform-center-y="-3.869112"
         inkscape:transform-center-x="-4.470133"
         inkscape:label="BOTTOM-LEFT" />
      <path
         sodipodi:type="star"
         style="font-variation-settings:'wght' 200;fill:#ff9c03;fill-opacity:1;stroke:#eda946;stroke-width:0.661458;stroke-opacity:0.68662"
         id="path1291-6-3-6-9"
         inkscape:flatsided="false"
         sodipodi:sides="3"
         sodipodi:cx="343.01932"
         sodipodi:cy="99.55706"
         sodipodi:r1="109.69587"
         sodipodi:r2="54.847935"
         sodipodi:arg1="0.52359878"
         sodipodi:arg2="1.5707963"
         inkscape:rounded="0.01"
         inkscape:randomized="0"
         d="m 438.01873,154.405 c -0.475,0.82271 -94.04942,-1e-5 -94.99941,-1e-5 -0.95,0 -94.52442,0.82272 -94.99941,0 -0.475,-0.82271 47.02471,-81.449177 47.4997,-82.271896 0.475,-0.822719 46.54971,-82.271903 47.49971,-82.271903 0.94999,0 47.0247,81.449182 47.4997,82.271901 0.475,0.822719 47.9747,81.449188 47.49971,82.271908 z"
         transform="matrix(-0.18293437,0.19121028,-0.17453215,-0.16697811,227.25798,97.653434)"
         inkscape:transform-center-x="3.8691952"
         inkscape:transform-center-y="-4.4702099"
         inkscape:label="BOTTOM-RIGHT" />
      <path
         sodipodi:type="star"
         style="font-variation-settings:'wght' 200;fill:#ff9c03;fill-opacity:1;stroke:#eda946;stroke-width:0.661458;stroke-opacity:0.68662"
         id="path1291-6-3-3"
         inkscape:flatsided="false"
         sodipodi:sides="3"
         sodipodi:cx="343.01932"
         sodipodi:cy="99.55706"
         sodipodi:r1="109.69587"
         sodipodi:r2="54.847935"
         sodipodi:arg1="0.52359878"
         sodipodi:arg2="1.5707963"
         inkscape:rounded="0.01"
         inkscape:randomized="0"
         d="m 438.01873,154.405 c -0.475,0.82271 -94.04942,-1e-5 -94.99941,-1e-5 -0.95,0 -94.52442,0.82272 -94.99941,0 -0.475,-0.82271 47.02471,-81.449177 47.4997,-82.271896 0.475,-0.822719 46.54971,-82.271903 47.49971,-82.271903 0.94999,0 47.0247,81.449182 47.4997,82.271901 0.475,0.822719 47.9747,81.449188 47.49971,82.271908 z"
         transform="matrix(-0.18290561,0.19118022,0.19118022,0.18290561,118.5149,-8.3952466)"
         inkscape:transform-center-x="-3.4086361"
         inkscape:transform-center-y="4.0296519"
         inkscape:label="TOP-LEFT" />
      <path
         sodipodi:type="star"
         style="font-variation-settings:'wght' 200;fill:#ff9c03;fill-opacity:1;stroke:#eda946;stroke-width:0.661458;stroke-opacity:0.68662"
         id="path1291-9"
         inkscape:flatsided="false"
         sodipodi:sides="3"
         sodipodi:cx="343.01932"
         sodipodi:cy="99.55706"
         sodipodi:r1="109.69587"
         sodipodi:r2="54.847935"
         sodipodi:arg1="0.52359878"
         sodipodi:arg2="1.5707963"
         inkscape:rounded="0.01"
         inkscape:randomized="0"
         d="m 438.01873,154.405 c -0.475,0.82271 -94.04942,-1e-5 -94.99941,-1e-5 -0.95,0 -94.52442,0.82272 -94.99941,0 -0.475,-0.82271 47.02471,-81.449177 47.4997,-82.271896 0.475,-0.822719 46.54971,-82.271903 47.49971,-82.271903 0.94999,0 47.0247,81.449182 47.4997,82.271901 0.475,0.822719 47.9747,81.449188 47.49971,82.271908 z"
         transform="matrix(0.19117847,0.18290393,-0.1829056,0.19118021,96.846879,-5.9134118)"
         inkscape:transform-center-y="3.408556"
         inkscape:transform-center-x="4.0295666"
         inkscape:label="TOP-RIGHT" />
    </g>
    <circle
       style="font-variation-settings:'wght' 200;fill:#ffb003;fill-opacity:1;stroke:#f09321;stroke-width:0.579507;stroke-opacity:0.461268"
       id="path1029"
       cx="57.169899"
       cy="114.74117"
       inkscape:label="Main Circle"
       r="43.614464" />
  </g>
</svg>
